<?xml version="1.0" encoding="UTF-8" standalone="no"?>
<svg
   xmlns="http://www.w3.org/2000/svg"
   viewBox="0 0 500 500">
  <path
     style="fill:#000000"
     d="m 269.8,252.4 h 5e-5 c -1.2,1.5 -6.2,2.1 -17.2,2.1 -17.1,0 -17.4,-0.1 -17.4,-10.9 0,-9.3 3.2,-11.2 19.5,-11.2 12.8,0 13.8,0.2 16.3,3.9 2.7,4.2 2.1,12 -1.1,16 z m 17.3,24 -0.4,5.8 -29.3,0.3 c -16.1,0.1 -30.9,-0.3 -32.9,-1.1 -2.6,-1 -3.5,-2.7 -3.5,-6.7 0,-9.1 2.1,-10.3 19.8,-10.7 31.8,-0.8 40.1,-0.1 43.7,3.3 2.3,2.3 3.1,4.8 2.7,9.1 z m 12,35.4 h 4e-5 c -2.8,1.1 -16.6,2 -37,2.2 -32.4,0.4 -53,-0.9 -55.8,-3.7 -0.8,-0.8 -1.2,-4.2 -0.9,-7.6 0.8,-9.9 2.3,-10.2 50.7,-9.7 28.8,0.2 42.9,0.9 44.1,2.2 0.9,0.9 2.1,4.7 2.6,8.2 0.8,6 0.5,6.6 -3.6,8.3 z m 112.9,21.3 c -9.9,4.5 -25.5,6 -38.4,3.7 -49.1,-8.8 -88.6,-59.3 -89.8,-115.1 -0.2,-12.9 -0.2,-13.1 5.1,-18.7 7.7,-7.9 12.7,-8.4 34.7,-3.3 43.8,10.2 82.2,30.7 105.1,56 17.5,19.4 21.3,32.2 13.9,47.5 -4.9,10.3 -19.9,25 -30.6,29.8 z m -267.7,1.4 c -14.1,4.5 -31.5,5.3 -41.1,1.8 -22.9,-8.2 -42.4,-29.1 -42.5,-45.4 0,-35.4 71.9,-85.7 131.8,-92 20.6,-2.1 24,-1 28.6,9.2 4.1,9.3 3.2,23.3 -2.6,43.8 -11.9,41.2 -39.2,71.7 -74.1,82.7 z m 167.3,5.8 v 0 c -6.8,3 -10.9,3.3 -51.1,3.7 -24,0.2 -45.4,0.1 -47.6,-0.2 -17.2,-3 -20.8,-4.2 -22.5,-7.8 -1.9,-4.2 -0.5,-13.9 2.3,-16.2 1.2,-0.9 5.9,-1 13,0 14.8,1.9 86.3,2.4 98.5,0.7 l 9.7,-1.3 2.5,4.8 c 4.6,8.9 3.4,12.7 -4.9,16.4 z m -33.1,79 6e-5,-6.2e-4 c -32.8,8.3 -69.5,-0.6 -90.2,-22.3 -4.8,-5.1 -10.2,-12.4 -11.9,-16.2 -2.9,-6.7 -7.1,-29.3 -5.6,-30.8 0.4,-0.4 7.3,0.1 15.4,1.1 33.9,4.3 98,3.9 143.8,-0.9 l 10.1,-1 -0.6,9.3 c -0.9,12.8 -6.1,22.8 -19,36.3 -12.5,13.1 -24.1,20 -41.9,24.5 z m -32.9,39 v -3.4e-4 c 3.1,6.6 6.4,11.5 7.4,11.2 1,-0.3 5,-6 9,-12.7 3.9,-6.6 8.5,-13 10.3,-14.2 1.7,-1.1 9.2,-4.4 16.6,-7.3 33.6,-13 48.9,-27.4 66.7,-62.5 l 8.8,-17.4 14.9,0.3 c 24.5,0.6 43.7,-6.3 60.7,-21.9 11.9,-11 20.8,-24.6 23.3,-35.8 3.9,-17.5 -6.2,-38.2 -30.5,-61.9 -16.3,-15.9 -26.6,-22.6 -58.6,-38.1 -23.4,-11.3 -25.1,-12.5 -25.8,-17 -0.3,-2.6 -1.4,-10.7 -2.3,-18 -2.9,-23.6 -13.1,-39.7 -34.4,-54.4 -6.5,-4.5 -12.5,-9.3 -13.3,-10.9 -3.7,-7 -0.3,-22.9 8.5,-40.6 5.4,-10.6 13,-17.8 26.1,-24.7 12.1,-6.3 18.2,-12.1 17.4,-16.3 -0.5,-2.5 -2.1,-2.8 -11.6,-2.7 -13.3,0.1 -21.2,3.7 -33.5,15.3 -11.4,10.8 -16.9,20 -24.3,40.2 -3.4,9.4 -7.6,18.3 -9.3,19.7 -6,4.9 -28.8,5.5 -35.1,0.8 -3.8,-2.8 -5.8,-7.4 -8.6,-20.2 -6.6,-29.8 -23.1,-47.4 -51,-54.5 -23.7,-6.0 -23.3,7.8 0.5,20.5 17.8,9.5 24.4,18.2 30.6,40.7 5,18.1 4.5,20.8 -4.3,26.9 -10.8,7.4 -30.9,27.8 -35.8,36.4 -4.8,8.3 -8.8,25.2 -8.8,37.2 0,9.8 -1.4,11.2 -17.4,18 -42.8,18.1 -79.5,47 -92.1,72.6 -4.5,9.2 -5.2,12.3 -5.2,22.6 0,9.9 0.7,13.4 4.6,21.3 6.2,12.8 22.7,29 36,35.5 10.8,5.3 29.7,9.5 43.4,9.6 16.1,0.1 17,0.6 21.9,13.2 13,33.9 37.3,56.5 73.3,68.3 11.7,3.8 15.7,7.6 22,20.9 z"/>
</svg>
