<?xml version="1.0" encoding="UTF-8" standalone="no"?>
<svg
   xmlns="http://www.w3.org/2000/svg"
   viewBox="0 0 500 500">
  <g
     style="fill:#ffffff"
     id="g10"
     transform="translate(-10,-168)">
    <path
       d="m 443.1,510.3 c -2.9,-15.1 -15.6,-25 -28.5,-24.2 l -96.2,5.4 c -11.8,0.7 -23.5,-3.4 -33.3,-11.7 l -79.3,-67.4 c -5.9,-5 -7.3,-9 -3.3,-15.9 29.5,-5.2 50.2,38.5 78.9,10.6 11.4,-13.8 9.2,-36.3 -3.8,-47.4 -27.8,-6.4 -85,-49.6 -142.7,-72.6 L 86,272.6 53,266.5 C 22.3,256.2 27.6,350.3 35.2,358.9 l 193.4,186.2 c 9.7,8.2 21.4,12.4 33.3,11.7 l 157.5,-8.9 c 15.8,-0.8 27.3,-18.4 23.5,-37.7 z"/>
    <path
       d="m 409.6,425.1 c 0,19.7 -11.9,32.2 -37.9,32.2 -23.9,0 -58,-14.3 -58,-30.4 0,-5.3 0.5,-10.7 9.7,-14.3 12.3,-3.5 22.3,0 34.3,0 9.9,0 11.9,-10 29.9,-10.5 13.9,-0.5 21.9,8.7 21.9,23.1 z"/>
    <path
       d="m 451.3,338.7 c 0,17.5 -9.5,28.6 -30.2,28.6 -19.1,0 -46.3,-12.7 -46.3,-27 0,-4.7 0.4,-9.5 7.8,-12.7 9.8,-3.1 17.8,0 27.3,0 7.9,0 9.5,-8.9 23.8,-9.3 11.1,-0.4 17.5,7.8 17.5,20.5 z"/>
    <path
       d="m 490.3,406.2 c 0,11.9 -6.5,19.5 -20.6,19.5 -13,0 -31.6,-8.7 -31.6,-18.4 0,-3.2 0.3,-6.5 5.3,-8.7 6.7,-2.1 12.1,0 18.7,0 5.4,0 6.5,-6 16.3,-6.4 7.6,-0.3 11.9,5.3 11.9,14 z"/>
  </g>
</svg>
