<?xml version="1.0" encoding="UTF-8" standalone="no"?>
<!-- Created with Inkscape (http://www.inkscape.org/) -->

<svg
   xmlns:dc="http://purl.org/dc/elements/1.1/"
   xmlns:cc="http://creativecommons.org/ns#"
   xmlns:rdf="http://www.w3.org/1999/02/22-rdf-syntax-ns#"
   xmlns:svg="http://www.w3.org/2000/svg"
   xmlns="http://www.w3.org/2000/svg"
   xmlns:sodipodi="http://sodipodi.sourceforge.net/DTD/sodipodi-0.dtd"
   xmlns:inkscape="http://www.inkscape.org/namespaces/inkscape"
   width="1900"
   height="1900"
   viewBox="0 0 502.70833 502.70833"
   version="1.1"
   id="svg15175"
   inkscape:version="0.92.4 (5da689c313, 2019-01-14)"
   sodipodi:docname="but_calatog.svg">
  <defs
     id="defs15169" />
  <sodipodi:namedview
     id="base"
     pagecolor="#e7af40"
     bordercolor="#666666"
     borderopacity="1.0"
     inkscape:pageopacity="0"
     inkscape:pageshadow="2"
     inkscape:zoom="0.22"
     inkscape:cx="1.4e+03"
     inkscape:cy="9.8e+02"
     inkscape:document-units="mm"
     inkscape:current-layer="layer1"
     showgrid="false"
     units="px"
     inkscape:window-width="1280"
     inkscape:window-height="777"
     inkscape:window-x="-8"
     inkscape:window-y="-8"
     inkscape:window-maximized="1"
     scale-x="4"
     fit-margin-top="0.5"
     fit-margin-right="0.5"
     fit-margin-left="0.5"
     fit-margin-bottom="0.5" />
  <metadata
     id="metadata15172">
    <rdf:RDF>
      <cc:Work
         rdf:about="">
        <dc:format>image/svg+xml</dc:format>
        <dc:type
           rdf:resource="http://purl.org/dc/dcmitype/StillImage" />
        <dc:title></dc:title>
      </cc:Work>
    </rdf:RDF>
  </metadata>
  <g
     inkscape:groupmode="layer"
     id="layer1"
     inkscape:label="Layer 1">
    <path
       inkscape:connector-curvature="0"
       id="rect3567-3-7"
       style="opacity:1;fill:#000000;fill-opacity:1;stroke:none;stroke-width:6.10543871;stroke-linecap:round;stroke-miterlimit:4;stroke-dasharray:none;stroke-dashoffset:0;stroke-opacity:1"
       d="m 179.67913,24.118911 c 1.2295,2.044308 -0.93431,4.896628 -3.76011,5.606911 -2.34315,1.301277 -5.90244,1.898345 -7.53686,0.02215 -1.66494,-1.711919 -0.65788,-4.967051 2.27195,-5.914839 2.34261,-1.146913 5.54101,-2.482352 7.74154,-1.037116 0.5672,0.335006 1.02054,0.787236 1.28348,1.321175 z m -17.80733,4.802317 c 1.35292,1.727062 1.57791,4.660097 -1.12879,6.122251 -2.31219,1.308133 -5.34055,2.85211 -7.97362,2.04618 -2.18028,-0.744119 -3.28419,-2.691233 -3.39134,-4.589349 -0.0222,-1.781578 1.5997,-3.569362 3.77735,-4.228795 2.51321,-1.371929 6.16206,-2.178299 8.05189,-0.234393 0.27753,0.263151 0.50751,0.559469 0.66341,0.884545 z m 32.42828,2.134399 c 0.86797,1.810546 1.90476,4.177257 -0.0773,6.079917 -2.16802,1.644704 -5.19505,2.767729 -7.99273,2.788294 -3.06098,-0.295211 -3.99683,-2.833855 -4.5271,-4.923266 -0.56722,-1.868709 0.88233,-3.994153 3.25799,-4.800637 2.47739,-1.242789 5.96292,-2.18924 8.12222,-0.636861 0.56721,0.38809 1.00174,0.90996 1.21558,1.498072 z m -28.4308,5.864963 c 2.94963,-0.565006 5.92479,-2.011121 8.90105,-1.686599 2.89535,0.673353 4.00456,3.506883 3.29438,5.851043 -0.81819,2.683041 -4.39508,3.331417 -7.14644,4.003548 -2.7422,0.895601 -6.4897,1.599047 -8.04305,-0.629129 -1.48803,-1.841288 -1.60867,-4.824735 0.91328,-6.609979 0.60039,-0.436744 1.32394,-0.764016 2.08101,-0.927662 z m -21.03169,4.578293 c 2.56119,-0.772876 5.64061,-2.213568 8.01496,-0.954204 3.02183,1.407981 2.90728,5.915947 -0.82373,7.380316 -2.53488,0.830353 -5.37946,2.289089 -7.9723,1.568954 -3.30575,-0.998429 -4.0836,-5.133122 -0.88233,-7.202617 0.49645,-0.340562 1.06368,-0.620287 1.66284,-0.791666 z m 134.53,408.671957 76.38072,-22.88923 c 2.69211,-0.81378 5.40169,0.20676 6.07075,2.27194 l 5.60204,17.30267 c 0.66892,2.06631 -0.96195,4.37917 -3.65582,5.18665 L 287.38454,474.932 c -2.69255,0.81378 -5.40191,-0.20565 -6.07106,-2.27196 l -5.60193,-17.30246 c -0.66894,-2.06617 0.96194,-4.37938 3.65604,-5.18686 z M 188.05963,76.077386 c 1.21668,-0.03323 5.12361,-1.262037 8.68975,-2.719322 l 6.47188,-2.686574 -2.13583,-5.169823 -2.13562,-5.169288 -8.15064,2.867252 -8.15054,2.867138 1.59231,5.043565 c 1.10899,3.550115 2.26476,5.022657 3.81548,4.985841 z m 1.20895,-13.122211 c 1.55922,-0.613661 1.76953,-0.99734 0.53293,-0.982961 -1.11774,0.0095 -2.2724,0.467697 -2.56551,1.008377 -0.29965,0.539571 0.62361,0.527408 2.03313,-0.02215 z m -21.23637,44.161535 c 1.21029,0.44338 5.41829,-0.32728 9.35141,-1.71192 5.67965,-2.00106 7.25204,-3.07656 7.63892,-5.23398 0.73307,-4.093558 -2.40927,-10.526296 -5.56114,-11.380423 -3.83835,-1.041564 -16.16913,3.421967 -16.88086,6.110317 -0.80383,3.032215 2.8751,11.275416 5.45201,12.216436 z m 6.64227,23.72006 c 3.82134,0.53625 17.93445,-5.04246 18.53883,-7.32989 0.84584,-3.19985 -2.95847,-11.56597 -5.58523,-12.2778 -4.43821,-1.20365 -14.0856,1.61527 -16.91604,4.94238 -2.21267,2.61848 -2.2694,3.97746 -0.29743,8.74571 1.28226,3.10795 3.20152,5.77054 4.25954,5.91916 z m 4.93233,23.34732 c 4.38268,3.4087 18.91101,-0.35603 21.38385,-5.54245 1.55746,-3.30344 -2.36351,-14.48066 -5.22644,-14.88887 -3.88701,-0.5429 -17.65538,4.05873 -19.47744,6.51324 -2.18382,2.94155 -0.21561,11.15299 3.33451,13.91321 z m 9.07597,26.20008 c 5.27687,1.9292 20.99598,-3.5406 21.71667,-7.55964 0.74191,-4.13624 -3.30499,-12.80832 -6.36418,-13.6378 -3.19033,-0.86575 -14.01805,1.67179 -18.21487,4.26838 -5.48606,3.3931 -3.59644,14.5648 2.86238,16.9283 z m 7.19057,25.5578 c 2.39999,0.75298 5.84961,0.11839 12.96322,-2.38605 11.18661,-3.93733 12.08907,-5.40976 8.55763,-13.94982 -2.72583,-6.59438 -5.49887,-7.28157 -16.46369,-4.08394 -7.46875,2.17941 -8.99735,3.03963 -10.59197,5.97742 -2.44544,4.50367 0.79388,12.95228 5.53547,14.44151 z m 8.1053,24.74658 c 3.75313,1.37237 22.06938,-4.58715 23.77887,-7.73912 1.5924,-2.93213 -3.27314,-13.68809 -6.59925,-14.59011 -3.54526,-0.96194 -21.12214,4.96308 -22.56472,7.60564 -0.58158,1.06809 -0.30297,4.5626 0.62139,7.76741 1.27342,4.41034 2.43173,6.10026 4.76251,6.95473 z m 9.02523,24.12306 c 2.86991,1.3706 5.37658,1.23693 12.21444,-0.70211 11.45242,-3.24871 13.27259,-5.95895 9.73796,-14.50552 -3.09712,-7.48967 -5.14771,-7.89944 -17.6021,-3.51496 -7.59657,2.67309 -8.98995,3.5761 -9.90037,6.40853 -1.4281,4.45167 1.1573,10.19038 5.55162,12.31395 z m 6.62932,24.30462 c 2.10389,2.46622 7.7087,2.14668 16.4804,-0.93982 9.52587,-3.35342 10.84284,-5.79002 7.50004,-13.87374 -3.13792,-7.58763 -5.15578,-8.00702 -17.55245,-3.64456 -6.01767,2.11905 -9.04954,3.7863 -9.70422,5.33857 -1.06368,2.52371 0.88011,10.31058 3.27679,13.11978 z m 11.03614,25.82107 c 3.13726,1.14758 5.53557,0.84032 12.45514,-1.59605 4.73818,-1.66913 9.34655,-4.02933 10.30761,-5.28239 2.16747,-2.82779 -1.4259,-13.98044 -4.90116,-15.26314 -3.34954,-1.22675 -20.50749,4.15736 -22.69121,7.12058 -0.98516,1.3362 -1.15566,4.79046 -0.3892,7.97616 1.13477,4.71992 1.97011,5.84639 5.23628,7.03985 z m 5.82395,22.45139 c 0.90333,1.12967 2.89467,2.35321 4.42238,2.72041 3.58806,0.85911 20.37348,-4.99579 21.79019,-7.60443 0.5816,-1.07472 -0.1858,-4.96327 -1.70737,-8.64321 -2.5308,-6.12558 -3.10024,-6.68239 -6.71459,-6.58499 -5.59131,0.14933 -17.86779,4.69682 -19.92491,7.37976 -1.81784,2.37113 -0.66784,9.23839 2.13396,12.73258 z m 15.47697,19.60183 c 5.45067,6.98955 6.53127,7.52361 11.61463,5.73727 5.97432,-2.10224 8.83903,-6.12503 7.94419,-11.15477 -1.55734,-8.75643 -8.76339,-10.89891 -21.56761,-6.41283 -5.06822,1.78357 -4.85858,3.03187 2.00504,11.83509 z m 13.56892,19.18433 c 5.53702,8.87419 7.4629,10.87017 9.72157,10.07529 6.27895,-2.21125 7.27992,-9.27843 2.30613,-16.29298 -1.87003,-2.63759 -3.24251,-3.13836 -6.89282,-2.51662 -2.50767,0.42347 -5.73372,0.8989 -7.17044,1.04817 -1.4354,0.15028 -2.35898,0.66672 -2.05304,1.14947 0.3074,0.48318 2.14668,3.42485 4.08837,6.53612 z M 196.00184,98.098436 c 3.45735,1.264137 15.22002,-2.533221 16.78676,-5.419931 1.23859,-2.280344 -2.73655,-12.744738 -4.95842,-13.057096 -0.83368,-0.117245 -4.37407,0.432333 -7.86846,1.219244 -5.28505,1.191042 -6.67002,2.004381 -8.22549,4.879252 -2.24431,4.135916 0.0663,10.842746 4.26351,12.380078 z m 42.88988,333.392924 c 9.10273,7.66459 25.34563,16.08202 30.80316,15.96227 4.22291,-0.0995 38.35174,-10.33756 39.11156,-11.7515 0.26977,-0.47875 17.38406,-4.3252 14.6696,-7.84658 -12.75778,-16.5559 -23.17758,-10.18673 -53.38146,-39.26999 -32.18382,-48.74381 -44.96858,-63.32995 -72.60229,-82.8316 l -12.57368,-8.87409 -47.20481,-25.08976 c 33.68775,41.47582 60.92065,91.83239 81.1588,132.39846 8.05953,13.23965 16.18639,24.2216 20.01935,27.30335 z m 46.94796,-17.64633 32.50954,18.94496 7.08476,-1.71326 c 28.0362,-6.77981 58.6077,-15.18386 48.43743,-60.5549 -1.43118,-6.38951 -6.11353,-24.00244 -10.40268,-39.13931 -17.48931,-60.63762 -91.19431,-184.08726 -80.58496,-251.712896 -2.77183,-0.38809 -28.37021,42.493306 -25.83556,61.382286 2.23481,16.66671 4.66033,25.92103 19.92458,76.02427 19.52268,64.08047 26.02374,86.98022 29.08492,102.45289 3.09656,15.65278 3.69508,35.34407 6.17081,73.64018 -3.51143,30.03006 -52.85849,-12.22153 -26.38894,20.67578 z M 203.18412,120.43938 c 3.48232,1.89326 15.98856,-1.25616 18.53286,-4.66841 2.21888,-2.97792 -0.82594,-12.71775 -4.38492,-14.02102 -1.20143,-0.43894 -5.30704,0.0221 -9.12385,1.01944 -5.74236,1.50263 -7.26254,2.40973 -8.80873,5.26027 -2.10986,3.88957 -0.16804,10.25918 3.78651,12.40962 z m 7.23357,23.34323 c 2.69234,2.74132 6.89413,2.8363 14.04347,0.31954 8.51717,-2.99969 10.36132,-6.45617 7.31828,-13.72535 -2.94741,-7.01378 -4.58039,-7.47209 -15.35724,-4.25797 l -9.51073,2.85299 0.26978,5.12735 c 0.28637,5.43951 0.91993,7.33476 3.23755,9.6987 z m 11.3413,26.27374 c 2.89158,1.05703 5.47798,0.70432 12.22462,-1.67091 4.84355,-1.70727 9.01716,-3.85894 9.61699,-4.96483 1.55591,-2.86471 -3.26706,-13.68611 -6.48857,-14.55993 -3.16147,-0.8558 -14.00422,1.66327 -18.12675,4.21308 -5.69293,3.52138 -3.89254,14.54467 2.77371,16.98236 z m 5.64837,22.35729 c 3.27004,4.01562 5.32031,4.04879 16.09252,0.25653 9.91462,-3.49086 10.50296,-3.87729 10.8487,-7.17079 0.52851,-5.023 -1.81397,-9.75884 -5.77463,-11.67399 -4.98353,-2.4084 -19.28251,1.44468 -22.36946,6.02906 -2.24156,3.32798 -1.69866,8.9947 1.20287,12.55875 z m 12.32048,27.64158 c 1.21504,0.32616 6.02209,-0.34167 10.6842,-1.49191 7.09558,-1.74963 8.84168,-2.6179 10.71603,-5.32938 3.1692,-4.58369 1.13576,-12.35496 -3.86569,-14.7731 -3.26263,-1.56364 -4.99678,-1.39956 -12.96608,1.29454 -7.63219,2.57733 -9.37939,3.61213 -10.21826,6.0233 -1.24942,3.60142 2.65098,13.46331 5.64968,14.27632 z m 10.23021,24.87879 c 2.34912,0.45334 6.70129,-0.31069 11.60598,-2.03478 10.0722,-3.54515 12.31219,-7.01752 9.27125,-14.37372 -2.86151,-6.91837 -6.67599,-7.59426 -18.78696,-3.33098 -10.60944,3.73388 -11.51765,5.30815 -7.99064,13.83725 1.67644,4.04977 2.96157,5.33745 5.90046,5.90521 z m 9.24624,24.90093 c 2.20617,0.0663 7.57468,-1.13886 11.93107,-2.6721 9.70234,-3.41502 10.90765,-5.56357 7.64864,-13.63326 -2.06905,-5.12052 -2.87863,-5.906 -6.37457,-6.1456 -2.20295,-0.15143 -7.42697,0.91882 -11.61152,2.38263 -9.71273,3.38836 -11.29154,6.20276 -7.98433,14.19838 2.09029,5.05206 2.86944,5.76943 6.39071,5.87027 z m 7.40729,24.37714 c 2.35001,0.73639 5.80073,0.13596 12.25524,-2.13606 7.74451,-2.72572 9.13071,-3.61767 10.04357,-6.46004 1.36893,-4.26472 -2.04396,-12.61415 -5.543,-13.56383 -1.45795,-0.39804 -6.9105,0.49092 -12.11295,1.96967 -7.64998,2.1741 -9.74447,3.21652 -10.95266,5.44204 -2.11725,3.89719 1.9397,13.37509 6.31101,14.74711 z m 9.5784,25.33843 c 3.94019,0.37815 18.67482,-4.21308 19.72234,-6.13065 1.05703,-1.93793 -0.49424,-13.96828 -1.98802,-15.41462 -3.69384,-3.57966 -21.41835,1.19236 -24.32595,6.54817 -2.6522,4.88301 1.58964,14.53273 6.59482,14.99932 z m 6.90685,24.14465 c 1.66195,0.90665 5.27785,0.69657 10.36088,-0.60482 l 7.8071,-1.99375 -1.37092,-9.73376 c -0.75409,-5.35248 -1.71603,-9.85913 -2.13818,-10.01403 -0.42348,-0.15696 -4.89673,1.06255 -9.9426,2.70284 -7.67454,2.49574 -9.34034,3.45901 -10.17923,5.8883 -1.24819,3.61015 2.03965,11.89103 5.46249,13.75323 z m 8.88956,25.1373 c 1.4605,0.39914 4.8598,0.27421 7.54992,-0.2731 l 4.89174,-0.994 -1.05814,-7.32734 c -0.58269,-4.03055 -1.2201,-8.60386 -1.41737,-10.1621 -0.33501,-2.64323 -0.80824,-2.67552 -6.95097,-0.49644 -3.63006,1.27771 -7.26299,3.10518 -8.0834,4.04036 -2.2347,2.54352 1.68107,14.29237 5.06668,15.21119 z m 8.49803,24.14873 c 1.48914,0.81045 3.24651,0.87349 3.90493,0.13595 0.93541,-1.03602 1.16495,-16.66978 0.28195,-18.80596 -0.0884,-0.25652 -1.98624,0.17912 -4.18632,0.95199 -2.59083,0.91439 -4.37031,2.56761 -5.05606,4.70501 -1.30314,4.05442 1.40653,11.02396 5.05484,13.01098 z m -17.47737,0.13385 c 1.79032,2.54474 3.63657,4.7677 4.10217,4.93853 2.11042,0.77177 2.89324,-2.5476 1.77982,-7.55313 -1.31875,-5.93352 -6.20795,-10.28282 -10.04113,-8.93356 -2.25027,0.79719 -1.04376,4.15194 4.15879,11.54805 z m -76.39621,-89.42418 c 10.83566,6.268 13.22072,6.72199 12.84877,2.44145 -0.56942,-6.54429 -3.64055,-11.48282 -7.48257,-12.04053 -4.09555,-0.58931 -15.96902,1.83466 -15.42425,3.15341 0.20344,0.45111 4.71374,3.3554 10.05805,6.44555 z m -21.04706,-13.39753 c 4.22037,2.66193 20.09816,-1.17102 23.5626,-5.68783 1.20364,-1.56808 1.24697,-4.46884 0.12373,-8.3595 -2.45162,-8.49969 -5.10039,-9.1913 -17.92552,-4.67724 -8.53828,3.00622 -10.11575,3.94217 -10.5296,6.25162 -0.5639,3.14642 2.44034,11.00295 4.76846,12.47273 z m 59.46558,-154.12111 c 2.34448,0.32729 5.11996,-14.38434 3.31648,-17.58374 -1.95727,-3.47417 -8.05851,-2.52061 -9.4394,1.47442 -1.06698,3.08495 3.75709,15.77684 6.12292,16.10909 z m -9.00511,-23.9852 c 6.52419,0.18694 12.71222,-2.59669 14.64607,-6.5893 2.38949,-4.94549 1.95164,-8.669206 -1.36231,-11.489561 -2.18051,-1.855228 -4.21342,-2.105336 -9.02788,-1.070302 -11.8445,2.534538 -13.80487,5.470132 -9.95345,14.900933 1.36884,3.31316 2.47584,4.1536 5.69769,4.24636 z m -9.46317,-22.057547 c 1.89313,-0.243253 6.0569,-1.550717 9.25198,-2.905061 5.53704,-2.344484 5.78183,-2.688254 5.21208,-7.301357 -0.90224,-7.309225 -4.28661,-9.509407 -12.06785,-7.843813 -9.82618,2.10146 -11.57027,4.635005 -8.42738,12.234343 2.3143,5.592761 2.95459,6.208179 6.03006,5.813788 z M 214.36563,68.108519 c 1.90575,-0.244361 5.78404,-1.45043 8.61679,-2.681724 5.15114,-2.232587 5.15082,-2.235566 3.0488,-7.320377 -1.93283,-4.675143 -2.46312,-5.047862 -6.5706,-4.599737 -6.44169,0.70211 -11.17456,3.792604 -10.88644,7.106435 0.49646,5.72299 2.22132,7.95128 5.7908,7.493531 z M 201.18957,50.088801 c 0.67227,0.246576 3.27526,-0.276421 5.78436,-1.158522 3.67584,-1.295205 4.58194,-2.285003 4.66908,-5.107916 0.2123,-6.82016 -5.87205,-8.882151 -12.04861,-4.084378 -2.19963,1.708596 -2.46742,3.03487 -1.22209,6.046749 0.8779,2.120803 2.1449,4.058389 2.81694,4.303743 z m -17.78244,6.167717 c 5.65568,-1.007289 8.5206,-3.309306 8.17651,-6.567646 -0.63024,-5.955302 -2.53366,-6.922662 -9.57695,-4.872721 l -6.58366,1.916925 2.10654,5.099495 c 1.89414,4.577624 2.4922,5.029416 5.87514,4.425933 z m -21.03003,6.472647 c 7.23204,-0.92877 8.47691,-2.587069 6.16317,-8.182027 l -2.1302,-5.153802 -5.43431,1.911617 c -5.4133,1.904971 -5.42348,1.939017 -3.8449,6.90286 1.40466,4.465078 1.97652,4.940299 5.24756,4.51992 z m 2.57347,20.737703 c 9.20513,-0.247684 13.0781,-3.395005 11.79296,-9.586151 -1.1792,-5.678327 -4.39043,-6.449637 -12.62222,-3.033323 l -6.41084,2.663144 1.58975,5.035832 c 1.41648,4.499889 2.03178,5.021664 5.6393,4.923801 z m -29.88466,5.910294 c 2.18328,2.758448 4.4937,2.98358 10.16341,0.985158 6.17379,-2.175206 7.49894,-3.828847 6.74665,-8.434675 -0.86686,-5.298085 -5.09178,-6.582673 -12.76697,-3.880823 -5.24412,1.845814 -6.06387,2.58409 -6.15553,5.542446 -0.0554,1.877225 0.004,3.483663 0.1392,3.569343 0.12718,0.09949 0.97854,1.083573 1.87414,2.215782 z m 4.04878,-20.067329 c 0.67225,0.245468 3.56516,-0.37923 6.42965,-1.386404 l 5.20587,-1.834109 -2.0799,-5.036042 c -1.86583,-4.510066 -2.47595,-4.964836 -5.84959,-4.362899 -6.95075,1.244106 -8.62742,3.220073 -6.69425,7.899876 0.97191,2.348131 2.31607,4.470138 2.98822,4.716828 z m 0.91993,47.063417 c 3.66234,0.5053 14.22446,-2.79726 15.8005,-4.93753 2.34106,-3.19011 0.34054,-11.673126 -3.19397,-13.554663 -3.60828,-1.921775 -16.81111,2.079577 -17.68061,5.357043 -0.68662,2.58453 3.29735,12.89444 5.0763,13.14079 z m 3.25733,22.87199 c 2.13673,1.27838 14.43157,-1.73116 17.81418,-4.35837 2.1283,-1.65332 2.52482,-3.31859 1.6186,-6.79408 -1.71912,-6.59262 -3.39035,-8.08882 -8.63084,-7.82678 -11.81341,0.60261 -17.4483,5.81709 -14.33237,13.26132 1.09683,2.64898 2.69609,5.21848 3.53043,5.71791 z m 6.29254,25.8601 c 1.19545,0.7596 5.15357,0.2908 10.60734,-1.25738 10.61939,-3.011 11.78324,-5.04479 8.05566,-14.0583 -2.28457,-5.51955 -2.92542,-6.11684 -6.48184,-6.02053 -6.61838,0.17797 -15.40986,3.85551 -16.95361,7.08996 -1.48471,3.15318 1.52639,12.18769 4.77432,14.24537 z m 4.94162,25.333 c 2.0832,1.13577 5.00033,0.85692 11.77913,-1.11949 8.19597,-2.39092 9.1095,-2.94222 10.12042,-6.08644 0.61033,-1.90121 0.20676,-5.6393 -0.89561,-8.30577 -2.64246,-6.39304 -6.81431,-7.25282 -17.29184,-3.56514 -6.49056,2.28344 -7.94498,3.27833 -8.82941,6.0317 -1.3119,4.08283 1.41449,11.02915 5.11962,13.04404 z m 5.56389,26.30049 c 2.85663,1.81276 21.919,-4.06568 23.22416,-7.16481 1.57703,-3.73243 -1.25385,-12.68657 -4.56514,-14.43808 -4.23189,-2.23911 -20.62073,2.58199 -23.22183,6.83145 -1.97518,3.22947 0.86243,12.42209 4.55828,14.76779 z m 10.40489,25.27177 c 1.71238,0.15257 7.09748,-1.13652 11.95981,-2.84957 7.59692,-2.67319 8.99107,-3.57543 9.90004,-6.40873 1.7232,-5.37361 -1.66603,-11.61385 -7.02494,-12.93039 -6.73723,-1.65587 -19.91649,3.10509 -21.4021,7.72993 -1.57603,4.91464 2.60367,14.12076 6.56664,14.4571 z m 8.18502,24.34067 c 2.55589,0.80381 5.79166,0.26315 12.4388,-2.07747 7.7454,-2.72595 9.1317,-3.61689 10.04455,-6.46049 1.29287,-4.03308 -1.40067,-11.02021 -5.0083,-12.98522 -1.99441,-1.08468 -5.06921,-0.74081 -12.27171,1.3675 -5.28483,1.55227 -10.26934,3.61403 -11.0703,4.59323 -0.82816,1.01059 -0.62359,4.5177 0.47655,8.12718 1.5841,5.1935 2.56242,6.54895 5.39173,7.43461 z"
       sodipodi:nodetypes="cccccccccccccccccccccccccccccccccccccccccccccccccccccccccccccccccccccccccccccccccccccccccccccccccccccccccccccccccccccccccccccccccccccccccccccccccccccccccccccccccccccccccccccccccccccccccccccccccccccccccccccccccccccccccccccccccccccccccccccccccccccccccccccccccccccccccccccccccccccccccccccccccccccccccccccccccccccccccccccccccccccccccccccccccccccccccccccccccccccccccccccscccccccccccccccccccccccccccccccccccccccc" />
  </g>
</svg>
