<?xml version="1.0" encoding="UTF-8" standalone="no"?>
<!-- Created with Inkscape (http://www.inkscape.org/) -->

<svg
   xmlns:dc="http://purl.org/dc/elements/1.1/"
   xmlns:cc="http://creativecommons.org/ns#"
   xmlns:rdf="http://www.w3.org/1999/02/22-rdf-syntax-ns#"
   xmlns:svg="http://www.w3.org/2000/svg"
   xmlns="http://www.w3.org/2000/svg"
   xmlns:sodipodi="http://sodipodi.sourceforge.net/DTD/sodipodi-0.dtd"
   xmlns:inkscape="http://www.inkscape.org/namespaces/inkscape"
   width="500"
   height="500"
   viewBox="0 0 500.29004 500.29004"
   version="1.1"
   id="svg3797"
   inkscape:version="0.92.4 (5da689c313, 2019-01-14)"
   sodipodi:docname="but_about.svg">
  <defs
     id="defs3791" />
  <sodipodi:namedview
     id="base"
     pagecolor="#df9500"
     bordercolor="#666666"
     borderopacity="1.0"
     inkscape:pageopacity="0"
     inkscape:pageshadow="2"
     inkscape:zoom="0.8203125"
     inkscape:cx="401.97919"
     inkscape:cy="356.41905"
     inkscape:document-units="mm"
     inkscape:current-layer="layer1"
     showgrid="false"
     units="px"
     inkscape:window-width="1280"
     inkscape:window-height="777"
     inkscape:window-x="-8"
     inkscape:window-y="-8"
     inkscape:window-maximized="1" />
  <metadata
     id="metadata3794">
    <rdf:RDF>
      <cc:Work
         rdf:about="">
        <dc:format>image/svg+xml</dc:format>
        <dc:type
           rdf:resource="http://purl.org/dc/dcmitype/StillImage" />
        <dc:title></dc:title>
      </cc:Work>
    </rdf:RDF>
  </metadata>
  <g
     inkscape:label="Layer 1"
     inkscape:groupmode="layer"
     id="layer1"
     transform="translate(0,308.83333)">
    <path
       style="opacity:1;fill:#ffffff;fill-opacity:1;stroke:none;stroke-width:10.79079914;stroke-linecap:round;stroke-miterlimit:4;stroke-dasharray:none;stroke-dashoffset:0;stroke-opacity:1"
       d="m 263.52511,-46.305046 h 5e-5 c -1.26255,1.520369 -6.21992,2.13366 -17.26851,2.13366 -17.19239,0 -17.4231,-0.144872 -17.4231,-10.986907 0,-9.327787 3.29026,-11.218984 19.51863,-11.218984 12.89854,0 13.87315,0.238084 16.32769,3.983641 2.76095,4.213864 2.1987,12.047786 -1.15476,16.08859 z m 17.34509,24.033579 -0.48695,5.856926 -29.34373,0.31445 c -16.13904,0.172387 -30.9497,-0.339719 -32.91256,-1.138648 -2.69916,-1.09777 -3.56883,-2.743919 -3.56883,-6.751874 0,-9.177581 2.11356,-10.327741 19.82685,-10.786165 31.81653,-0.823973 40.14567,-0.179686 43.70941,3.384725 2.36751,2.367477 3.12901,4.869774 2.77577,9.120362 z m 12.00946,35.416752 h 4e-5 c -2.87399,1.181997 -16.61341,2.033092 -37.08165,2.295771 -32.49419,0.41777 -53.024,-0.971429 -55.8295,-3.777172 -0.81861,-0.818975 -1.26106,-4.2423326 -0.98353,-7.608752 0.82308,-9.9795985 2.35384,-10.2757436 50.78832,-9.7900296 28.81927,0.2886208 42.92419,0.9961349 44.14077,2.2147437 0.9834,0.9850168 2.18018,4.7150198 2.65955,8.2889767 0.80684,6.0151612 0.53204,6.6383912 -3.694,8.3764622 z m 112.94563,21.339242 c -9.94919,4.554931 -25.53714,6.084003 -38.44706,3.771892 -49.18361,-8.809224 -88.60332,-59.303269 -89.86997,-115.117875 -0.29351,-12.935772 -0.22944,-13.168803 5.15287,-18.738511 7.70411,-7.971943 12.75724,-8.454903 34.70991,-3.316223 43.81768,10.257161 82.24279,30.734921 105.10563,56.013557 17.5755,19.432548 21.33292,32.202896 13.97644,47.5013155 -4.9946,10.3866445 -19.98378,25.0128135 -30.62782,29.8858445 z m -267.75625,1.46141 C 123.98112,40.396425 106.58712,41.131453 96.936109,37.683782 73.970831,29.480381 54.405613,8.5578414 54.372158,-7.8332945 54.300288,-43.211132 126.38195,-93.516731 186.24864,-99.86886 c 20.6357,-2.18959 24.05075,-1.09159 28.6032,9.200659 4.1327,9.342499 3.28836,23.392999 -2.63382,43.829375 -11.96338,41.2829407 -39.26575,71.765343 -74.14898,82.784763 z m 167.35103,5.849007 v -0.0024 c -6.89237,3.048094 -10.90617,3.344183 -51.15325,3.770264 -24.02071,0.253807 -45.45843,0.152733 -47.63938,-0.226854 -17.26711,-3.002162 -20.86969,-4.257045 -22.50094,-7.837122 -1.93887,-4.255529 -0.55158,-13.993786 2.31952,-16.283605 1.23815,-0.985017 5.96043,-1.02219 13.04375,-0.09939 14.86987,1.936567 86.32215,2.476524 98.59911,0.74463 l 9.77485,-1.378754 2.5178,4.86882 c 4.60363,8.902661 3.45099,12.722788 -4.96146,16.443751 z m -33.1198,79.031796 6e-5,-6.2e-4 c -32.83897,8.39875 -69.5735,-0.6951 -90.21159,-22.331446 -4.8998,-5.137058 -10.29315,-12.469768 -11.98523,-16.294611 -2.99344,-6.767372 -7.10428,-29.343361 -5.61436,-30.833295 0.40873,-0.408786 7.38054,0.111742 15.49275,1.143589 33.95031,4.344867 98.07983,3.928444 143.83254,-0.932964 l 10.12199,-1.075421 -0.67935,9.390958 c -0.92703,12.816898 -6.16174,22.817722 -19.03867,36.373861 -12.53275,13.193729 -24.19684,20.027979 -41.91814,24.559949 z m -32.98726,39.07179 v -3.4e-4 c 3.14316,6.62385 6.43658,11.55994 7.4812,11.21427 1.02639,-0.34084 5.08686,-6.08501 9.02334,-12.76574 3.93646,-6.68102 8.57594,-13.09789 10.30995,-14.25883 1.73402,-1.16094 9.21977,-4.47121 16.63501,-7.35449 33.61612,-13.07183 48.99745,-27.48985 66.73234,-62.553458 l 8.83792,-17.473633 14.9543,0.386325 c 24.57321,0.63564 43.76352,-6.300357 60.75373,-21.956745 11.94726,-11.009256 20.87644,-24.695218 23.36392,-35.81065707 3.9374,-17.59379693 -6.25576,-38.24265193 -30.56735,-61.92213793 -16.35363,-15.928612 -26.64926,-22.632926 -58.63754,-38.183464 -23.43477,-11.39272 -25.18482,-12.54833 -25.8415,-17.06266 -0.38733,-2.66368 -1.45452,-10.78813 -2.37152,-18.05419 -2.98342,-23.64197 -13.16082,-39.74129 -34.40858,-54.4299 -6.52965,-4.51383 -12.55,-9.47372 -13.37853,-11.02211 -3.75374,-7.01366 -0.39463,-22.93929 8.57035,-40.63052 5.41485,-10.68559 13.01573,-17.89998 26.10839,-24.77996 12.14025,-6.37942 18.2924,-12.15569 17.44838,-16.38196 -0.50154,-2.51085 -2.11962,-2.89866 -11.64312,-2.79954 -13.39933,0.14246 -21.26088,3.73648 -33.50175,15.31318 -11.44504,10.82437 -16.99175,20.00594 -24.3426,40.29449 -3.43491,9.48067 -7.65562,18.38878 -9.37937,19.79656 -6.08126,4.96568 -28.87781,5.53995 -35.17779,0.88586 -3.84689,-2.8418 -5.81562,-7.4281 -8.69421,-20.25347 -6.6933,-29.82126 -23.16646,-47.44916 -51.00642,-54.58128 -23.72726,-6.07883 -23.32774,7.84344 0.59051,20.57774 17.84952,9.50346 24.41896,18.2318 30.65239,40.72592 5.026,18.13678 4.58624,20.88811 -4.31738,27.00957 -10.82808,7.44484 -30.9102,27.83102 -35.88513,36.42855 -4.82035,8.33058 -8.8551,25.20642 -8.89599,37.20878 -0.0337,9.81816 -1.40851,11.23532 -17.47516,18.00753 -42.949531,18.103934 -79.687963,47.009534 -92.294118,72.616434 -4.536081,9.214023 -5.253966,12.302154 -5.253966,22.6016495 0,9.97791363 0.759516,13.4764023 4.642707,21.3854555 6.290761,12.812238 22.709063,29.030538 36.025225,35.585881 10.847449,5.340271 29.830312,9.526003 43.596162,9.625055 16.1413,0.111181 17.08078,0.678933 21.94535,13.291719 13.08061,33.915696 37.36491,56.542276 73.33203,68.325866 11.76998,3.8559 15.71856,7.61235 22.06882,20.99402 z"
       id="path3745-3"
       inkscape:connector-curvature="0" />
  </g>
</svg>
