<?xml version="1.0" encoding="UTF-8" standalone="no"?>
<!-- Created with Inkscape (http://www.inkscape.org/) -->

<svg
   xmlns:dc="http://purl.org/dc/elements/1.1/"
   xmlns:cc="http://creativecommons.org/ns#"
   xmlns:rdf="http://www.w3.org/1999/02/22-rdf-syntax-ns#"
   xmlns:svg="http://www.w3.org/2000/svg"
   xmlns="http://www.w3.org/2000/svg"
   xmlns:sodipodi="http://sodipodi.sourceforge.net/DTD/sodipodi-0.dtd"
   xmlns:inkscape="http://www.inkscape.org/namespaces/inkscape"
   width="500"
   height="500"
   viewBox="0 0 500 500"
   version="1.1"
   id="svg3929"
   inkscape:version="0.92.4 (5da689c313, 2019-01-14)"
   sodipodi:docname="but_member.svg">
  <defs
     id="defs3923" />
  <sodipodi:namedview
     id="base"
     pagecolor="#ffff5f"
     bordercolor="#666666"
     borderopacity="1.0"
     inkscape:pageopacity="0"
     inkscape:pageshadow="2"
     inkscape:zoom="0.20507813"
     inkscape:cx="-133.4206"
     inkscape:cy="824.05592"
     inkscape:document-units="mm"
     inkscape:current-layer="layer1"
     showgrid="false"
     units="px"
     inkscape:window-width="1280"
     inkscape:window-height="777"
     inkscape:window-x="-8"
     inkscape:window-y="-8"
     inkscape:window-maximized="1" />
  <metadata
     id="metadata3926">
    <rdf:RDF>
      <cc:Work
         rdf:about="">
        <dc:format>image/svg+xml</dc:format>
        <dc:type
           rdf:resource="http://purl.org/dc/dcmitype/StillImage" />
        <dc:title></dc:title>
      </cc:Work>
    </rdf:RDF>
  </metadata>
  <g
     inkscape:label="Layer 1"
     inkscape:groupmode="layer"
     id="layer1"
     transform="translate(0,-164.70832)">
    <path
       inkscape:connector-curvature="0"
       d="m 443.12369,510.30804 c -2.9446,-15.14029 -15.6071,-25.0804 -28.56373,-24.28697 l -96.26238,5.42738 c -11.80098,0.71448 -23.5301,-3.47357 -33.31947,-11.79762 l -79.32112,-67.44428 c -5.90046,-5.01712 -7.38547,-9.05574 -3.30019,-15.9748 29.59432,-5.27153 50.2452,38.56451 78.94205,10.61232 11.49716,-13.84344 9.24923,-36.30431 -3.82569,-47.42217 -27.81206,-6.43514 -85.02012,-49.65959 -142.78437,-72.68872 L 86.008677,272.68081 53.019689,266.59419 C 22.301457,256.2059 27.684042,350.38558 35.2638,358.92292 l 193.41387,186.23353 c 9.72224,8.26667 21.45115,12.45252 33.31924,11.79763 l 157.55391,-8.93779 c 15.80888,-0.84433 27.38406,-18.40492 23.57114,-37.70934 z"
       id="path2-3-6-0-0-3"
       style="fill:#000000;fill-opacity:1;stroke-width:0.8898707"
       inkscape:export-filename="C:\Users\pc\Documents\_www\charbu-online\_Total\img\theme_light\but\but_clip_empty.png"
       inkscape:export-xdpi="386.18918"
       inkscape:export-ydpi="386.18918"
       sodipodi:nodetypes="ccccccccccccccccc" />
    <path
       style="opacity:1;fill:#000000;fill-opacity:1;stroke:none;stroke-width:0.18920703;stroke-linecap:round;stroke-miterlimit:4;stroke-dasharray:none;stroke-dashoffset:0;stroke-opacity:1"
       d="m 409.66015,425.16999 c 0,19.73309 -11.97385,32.29062 -37.9173,32.29062 -23.94781,0 -58.0734,-14.35116 -58.0734,-30.49594 0,-5.38189 0.5986,-10.76281 9.77865,-14.35113 12.37307,-3.58722 22.35133,0 34.32518,0 9.97824,0 11.97385,-10.04513 29.93475,-10.5831 13.96948,-0.54126 21.95212,8.78953 21.95212,23.13955 z"
       id="path825-5"
       inkscape:connector-curvature="0"
       sodipodi:nodetypes="sssssss" />
    <path
       style="opacity:1;fill:#000000;fill-opacity:1;stroke:none;stroke-width:0.15920843;stroke-linecap:round;stroke-miterlimit:4;stroke-dasharray:none;stroke-dashoffset:0;stroke-opacity:1"
       d="m 451.362,338.77415 c 0,17.51297 -9.55253,28.65791 -30.24963,28.65791 -19.10506,0 -46.32967,-12.7361 -46.32967,-27.06557 0,-4.77584 0.47736,-9.55266 7.80123,-12.73618 9.87086,-3.18454 17.83132,0 27.38384,0 7.96045,0 9.55253,-8.91611 23.88124,-9.39349 11.1446,-0.47629 17.51299,7.80123 17.51299,20.53733 z"
       id="path825-3-4"
       inkscape:connector-curvature="0"
       sodipodi:nodetypes="sssssss" />
    <path
       style="opacity:1;fill:#000000;fill-opacity:1;stroke:none;stroke-width:0.10876264;stroke-linecap:round;stroke-miterlimit:4;stroke-dasharray:none;stroke-dashoffset:0;stroke-opacity:1"
       d="m 490.37497,406.27799 c 0,11.96431 -6.52578,19.57721 -20.66486,19.57721 -13.05155,0 -31.65003,-8.70077 -31.65003,-18.48935 0,-3.26252 0.32583,-6.52609 5.32935,-8.70075 6.74335,-2.17571 12.18148,0 18.70724,0 5.43814,0 6.52579,-6.09094 16.31438,-6.41788 7.61342,-0.32468 11.96392,5.33 11.96392,14.03077 z"
       id="path825-3-0-4"
       inkscape:connector-curvature="0"
       sodipodi:nodetypes="sssssss" />
  </g>
</svg>
